# xmcd CD database file
#
# Track frame offsets:
#	150
#	20227
#	47388
#	64721
#	83037
#	100927
#	125264
#	148878
#	171438
#	202856
#	223093
#	246706
#	269188
#
# Disc length: 3861 seconds
#
# Revision: 0
# Processed by: cddbd v1.4PL0 Copyright (c) Steve Scherf et al.
# Submitted via: CDex 1.50
#
DISCID=cb0f130d
DTITLE=ulu - Nerve
DYEAR=2003
DGENRE=Jazz
TTITLE0=Where's Paul
TTITLE1=Vaporize
TTITLE2=Rollin'
TTITLE3=March Of The Sloth People
TTITLE4=Give Yourself Away
TTITLE5=Spare Tissue
TTITLE6=All You Can Eat
TTITLE7=Shady Lady
TTITLE8=Bovine Confines
TTITLE9=Reunited
TTITLE10=Slinky
TTITLE11=The Tragic Flight Of Sir Donkey Hawk
TTITLE12=Space Oddity
EXTD=YEAR: 2003
EXTT0=
EXTT1=
EXTT2=
EXTT3=
EXTT4=
EXTT5=
EXTT6=
EXTT7=
EXTT8=
EXTT9=
EXTT10=
EXTT11=
EXTT12=
PLAYORDER=
